<svg width="400" height="400" viewBox="0 0 400 400" fill="none" xmlns="http://www.w3.org/2000/svg">
<g clip-path="url(#clip0_1_2)">
<g clip-path="url(#clip1_1_2)">
<path d="M200 400C310.457 400 400 310.457 400 200C400 89.543 310.457 0 200 0C89.543 0 0 89.543 0 200C0 310.457 89.543 400 200 400Z" fill="#B8BAC0"/>
<path d="M200 300.058C176.713 300.058 155.586 290.066 139.997 273.915C139.986 283.594 139.634 297.564 137.068 307.758C138.751 308.787 140.058 310.476 140.313 312.577C143.639 339.647 169.297 360.058 200 360.058C230.697 360.058 256.354 339.645 259.687 312.577C259.946 310.473 261.224 308.787 262.933 307.761C260.367 297.567 260.014 283.595 260.002 273.915C244.414 290.066 223.287 300.058 200 300.058Z" fill="white"/>
<path d="M258.7 275.145C243.243 290.543 222.665 300.058 200 300.058C176.713 300.058 155.586 290.066 139.997 273.915C139.986 283.594 139.634 297.564 137.068 307.758C138.751 308.787 140.058 310.476 140.313 312.577C141.783 324.543 147.628 335.198 156.332 343.373C196.472 337.721 242.031 298.085 258.7 275.145Z" fill="#D7DBE0"/>
<path d="M260 133.392H146.667C128.288 133.392 113.333 148.346 113.333 166.725V206.725C113.333 258.19 152.213 300.058 200 300.058C247.787 300.058 286.667 258.19 286.667 206.725V160.058C286.667 145.355 274.707 133.392 260 133.392Z" fill="white"/>
<path d="M246.667 60.0583H160C147.461 60.0583 136.921 68.7567 134.082 80.4325C111.132 83.35 93.3333 102.998 93.3333 126.725V160.058C93.3333 177.239 100.627 193.267 113.333 204.658V166.725C113.333 148.346 128.288 133.392 146.667 133.392H260C274.707 133.392 286.667 145.354 286.667 160.058V204.651C299.376 193.262 306.667 177.235 306.667 160.058V120.058C306.667 86.9758 279.752 60.0583 246.667 60.0583Z" fill="#5C546A"/>
<path d="M51.36 333.787C87.9683 374.432 140.992 400 200 400C259.007 400 312.032 374.432 348.64 333.787C342.257 325.157 333.255 318.145 321.68 314.904C321.413 314.829 321.146 314.771 320.872 314.732L267.657 306.747C267.331 306.697 266.634 306.672 266.302 306.672C262.937 306.672 260.098 309.182 259.687 312.524C256.354 339.591 230.697 360.005 200 360.005C169.297 360.005 143.639 339.595 140.312 312.524C139.896 309.083 136.797 306.496 133.528 306.674C133.137 306.652 132.753 306.684 132.343 306.746L79.1275 314.731C78.8542 314.77 78.5875 314.828 78.32 314.903C66.745 318.146 57.7433 325.157 51.36 333.787Z" fill="#5C546A"/>
</g>
</g>
<defs>
<clipPath id="clip0_1_2">
<rect width="400" height="400" fill="white"/>
</clipPath>
<clipPath id="clip1_1_2">
<rect width="400" height="400" fill="white"/>
</clipPath>
</defs>
</svg>
